<svg width="363" height="80" viewBox="0 0 363 80" fill="none" xmlns="http://www.w3.org/2000/svg">
<g clip-path="url(#clip0_2_2)">
<path d="M276.2 45.5C275.2 42.8 273.8 40.6 272 38.8C270.2 37 268.1 35.7 265.7 34.8C263.3 33.9 260.6 33.4 257.8 33.4C254.7 33.4 251.8 33.9 249.2 34.9C246.5 35.9 244.2 37.3 242.3 39.2C240.4 41 238.8 43.2 237.7 45.8C236.6 48.4 236 51.3 236 54.5C236 57.7 236.6 60.6 237.7 63.2C238.8 65.7 240.4 67.9 242.3 69.6C244.3 71.4 246.6 72.7 249.3 73.7C252 74.6 254.9 75.1 258.1 75.1C265.8 75.1 271.7 72.5 275.7 67.2L268.7 63.1C268.7 63.1 266.2 64.7 264.5 65.6C262.7 66.5 260.6 66.9 258 66.9C256.5 66.9 255.1 66.7 253.7 66.2C252.3 65.7 251.1 65 250 64.2C248.9 63.4 248.1 62.3 247.4 61.2C246.8 60 246.4 58.7 246.3 57.3H277.5C277.6 56.9 277.6 56.4 277.6 56V54.7C277.7 51.2 277.2 48.2 276.2 45.5ZM246.4 50.4C246.6 47.6 247.8 45.3 249.9 43.6C252 41.8 254.6 40.9 257.7 40.9C259.4 40.9 260.8 41.2 262 41.7C263.2 42.2 264.2 42.9 265 43.8C265.8 44.7 266.4 45.7 266.8 46.8C267.2 47.9 267.4 49.1 267.4 50.4H246.4Z" fill="#34393E"/>
<path d="M75 42.5V34.6H82.2V18.2H92.3V34.6H102.6V42.5H92.3V60.8C92.3 62.5 92.6 64 93.3 65.1C94 66.2 95.4 66.8 97.7 66.8C98.4 66.8 99.1 66.7 99.9 66.6C100.7 66.5 101.4 66.3 102 66L102.3 73.7C101.4 74 100.3 74.3 99 74.5C97.7 74.7 96.5 74.8 95.4 74.8C92.7 74.8 90.4 74.4 88.7 73.7C87 73 85.6 72 84.6 70.7C83.6 69.4 82.9 67.9 82.5 66.3C82.1 64.6 81.9 62.8 81.9 60.9V42.5H75Z" fill="#34393E"/>
<path d="M145 45.7C143.9 43.2 142.4 41 140.5 39.2C138.6 37.4 136.3 36 133.7 35C131.1 34 128.3 33.5 125.4 33.5C122.5 33.5 119.6 34 117 35C114.4 36 112.1 37.4 110.2 39.2C108.3 41 106.8 43.2 105.7 45.7C104.6 48.2 104 51.1 104 54.2C104 57.3 104.6 60.2 105.7 62.7C106.8 65.3 108.3 67.5 110.2 69.3C112.1 71.1 114.4 72.6 117 73.6C119.6 74.6 122.4 75.2 125.3 75.2C128.2 75.2 131 74.7 133.6 73.6C136.2 72.6 138.5 71.1 140.4 69.3C142.3 67.5 143.8 65.3 144.9 62.7C146 60.1 146.6 57.3 146.6 54.2C146.7 51 146.1 48.2 145 45.7ZM135.6 58.7C135.2 60.2 134.5 61.6 133.6 62.8C132.7 64 131.6 65 130.2 65.7C128.8 66.5 127.2 66.9 125.3 66.9C123.4 66.9 121.8 66.5 120.4 65.7C119 64.9 117.9 63.9 117 62.8C116.1 61.6 115.5 60.2 115 58.7C114.6 57.2 114.3 55.6 114.3 54.1C114.3 52.6 114.5 51 115 49.5C115.5 48 116.1 46.6 117 45.4C117.9 44.2 119 43.2 120.4 42.5C121.8 41.8 123.4 41.4 125.3 41.4C127.2 41.4 128.8 41.8 130.2 42.5C131.6 43.2 132.7 44.2 133.6 45.4C134.5 46.6 135.2 48 135.6 49.5C136 51 136.3 52.5 136.3 54.1C136.2 55.7 136 57.2 135.6 58.7Z" fill="#34393E"/>
<path d="M151 34.6H160.8V40.9H161C161.9 38.9 163.5 37.2 165.7 35.7C168 34.2 170.6 33.4 173.7 33.4C176.4 33.4 178.7 33.9 180.6 34.8C182.5 35.7 184.1 36.9 185.3 38.4C186.5 39.9 187.4 41.6 188 43.5C188.6 45.4 188.9 47.4 188.9 49.4V74H178.6V52.2C178.6 51.1 178.5 49.8 178.3 48.6C178.1 47.4 177.8 46.2 177.2 45.2C176.6 44.2 175.8 43.4 174.8 42.7C173.8 42 172.5 41.7 170.8 41.7C169.1 41.7 167.7 42 166.5 42.6C165.3 43.2 164.3 44 163.5 45C162.7 46 162.1 47.1 161.7 48.4C161.3 49.7 161.1 51 161.1 52.3V74H151V34.6Z" fill="#34393E"/>
<path d="M197.4 18H207.6V51.2H207.9L223.4 34.6H236.6L218.8 52.4L237.7 74H224.1L207.9 53.8H207.6V74H197.4V18Z" fill="#34393E"/>
<path d="M317.8 44.1C317.3 42.1 316.3 40.4 314.9 38.8C313.5 37.2 311.7 35.9 309.3 35C306.9 34 303.9 33.5 300.3 33.5C297.2 33.5 294.1 34 291 35.1C288 36.1 285.2 37.7 282.9 39.8L288.2 45.8C289.5 44.5 291.2 43.5 293.2 42.6C295.2 41.7 297.3 41.3 299.4 41.3C302 41.3 304.2 41.9 306 43.1C307.9 44.3 308.8 46.1 308.8 48.5V49.5C305.6 49.5 302.3 49.6 299 50C295.7 50.3 292.6 50.9 289.9 51.8C287.2 52.7 284.9 54.1 283.2 55.8C281.5 57.5 280.6 59.9 280.6 62.8C280.6 65.1 281.1 67 282.1 68.6C283.1 70.2 284.3 71.4 285.9 72.4C287.4 73.4 289.1 74 290.9 74.4C292.7 74.8 294.4 75 296.1 75C299 75 301.6 74.4 303.9 73.3C306.2 72.2 307.8 70.8 308.9 69H309.1V74H318.7V50C318.6 48.1 318.3 46.1 317.8 44.1ZM308.9 57.4C308.9 60.5 308 63 306.2 64.8C304.4 66.6 301.7 67.5 298.2 67.5C297.3 67.5 296.5 67.4 295.6 67.3C294.7 67.1 294 66.9 293.3 66.5C292.6 66.1 292.1 65.6 291.6 65C291.1 64.4 291 63.6 291 62.7C291 61.2 291.5 60.1 292.5 59.2C293.5 58.4 294.8 57.7 296.3 57.2C297.8 56.7 299.5 56.4 301.3 56.3C303.1 56.2 304.9 56.1 306.5 56.1H308.8V57.4H308.9Z" fill="#34393E"/>
<path d="M325 34.6H334.8V40.9H335C335.9 38.9 337.5 37.2 339.7 35.7C342 34.2 344.6 33.4 347.7 33.4C350.4 33.4 352.7 33.9 354.6 34.8C356.5 35.7 358.1 36.9 359.3 38.4C360.5 39.9 361.4 41.6 362 43.5C362.6 45.4 362.9 47.4 362.9 49.4V74H352.6V52.2C352.6 51.1 352.5 49.8 352.3 48.6C352.1 47.4 351.8 46.2 351.2 45.2C350.6 44.2 349.8 43.4 348.8 42.7C347.8 42 346.5 41.7 344.8 41.7C343.1 41.7 341.7 42 340.5 42.6C339.3 43.2 338.3 44 337.5 45C336.7 46 336.1 47.1 335.7 48.4C335.3 49.7 335.1 51 335.1 52.3V74H325V34.6Z" fill="#34393E"/>
<path d="M55.6 33C55.6 33 54 40.2 52.4 32.8C50.7 25.4 46.7 21 46.7 21L46 23.8C45.3 26.6 43.5 27.5 43.5 27.5C43.5 27.5 43.9 22.7 42.4 18C40.9 13 38.5 8.50001 38.5 8.50001C38.5 8.50001 36.4 14.8 35.8 12.3C35.2 9.70001 34.4 7.50001 32.6 4.80001C31.1 2.50001 28.5 0.600006 28.5 0.600006C28.5 0.600006 30 8.10001 26.2 13.4C22.3 18.7 14.7 22.6 14.7 22.6C14.7 22.6 14.8 22 14.3 20.8C13.8 19.6 14 17.8 14 17.8C14 17.8 10.2 20.3 7.8 26.8C5.4 33.3 5.2 38.6 5.2 38.6L4 36.5C4 36.5 -2.4 47.1 2.9 61.7C3.7 63.2 5.9 67 5.9 67C7.5 68.8 9.1 71.5 15.1 75.7C21.4 80.2 31.3 79.9 36 78.3C40.7 76.8 45.3 73.5 45.3 73.5C45.3 73.5 51.3 68.9 54.4 61.1C57 54.7 58.5 45.7 55.6 33Z" fill="#7772D5"/>
<path d="M47 59.3C46.3 63.6 42.9 66.8 38.9 67.4C37.6 72.5 32.7 75.9 27.5 75.1C22.3 74.3 18.6 69.6 19.1 64.2C15 62.4 12.5 58 13.3 53.4C14.2 47.8 19.4 43.9 24.9 44.7C28.2 45.2 30.8 47.2 32.2 50C34.2 48.6 36.6 47.9 39.2 48.2C44.3 49.1 47.8 54 47 59.3Z" fill="white"/>
<path d="M38 56.7C36.6 56.3 35.2 57.2 34.9 58.5C34.5 59.9 35.9 59.3 37.2 59.7C38.6 60.1 39.5 61.2 39.8 59.8C40.2 58.5 39.4 57.1 38 56.7ZM24.1 53.9C22.7 53.9 21.5 55.1 21.5 56.5C21.5 57.9 23.1 57.1 24.5 57.1C25.9 57.1 26.6 57.9 26.6 56.5C26.7 55.1 25.5 53.9 24.1 53.9Z" fill="#7772D5"/>
</g>
<defs>
<clipPath id="clip0_2_2">
<rect width="363" height="80" fill="white"/>
</clipPath>
</defs>
</svg>
