<svg width="168" height="34" viewBox="0 0 168 34" fill="none" xmlns="http://www.w3.org/2000/svg">
<path fill-rule="evenodd" clip-rule="evenodd" d="M34.4111 26.516V5.5278H44.1849C45.1827 5.5278 46.0924 5.61598 46.914 5.79235C47.7357 5.96872 48.44 6.26268 49.0269 6.67421C49.6138 7.06615 50.0638 7.59526 50.3768 8.26156C50.7094 8.92785 50.8757 9.75092 50.8757 10.7308C50.8757 11.789 50.6311 12.6709 50.142 13.3763C49.6725 14.0818 48.9682 14.6599 48.0292 15.1107C49.3204 15.483 50.279 16.1395 50.905 17.0801C51.5506 18.0012 51.8734 19.1182 51.8734 20.4312C51.8734 21.4894 51.668 22.4105 51.2572 23.1944C50.8463 23.9586 50.2888 24.5857 49.5845 25.0757C48.8998 25.5656 48.1074 25.9281 47.2075 26.1633C46.3271 26.3985 45.4174 26.516 44.4784 26.516H34.4111ZM43.598 14.023H38.9321V9.11402H43.2459C43.6567 9.11402 44.048 9.15322 44.4197 9.2316C44.811 9.29039 45.1533 9.40797 45.4468 9.58435C45.7402 9.76072 45.975 10.0057 46.1511 10.3192C46.3271 10.6328 46.4152 11.0345 46.4152 11.5244C46.4152 12.4063 46.1511 13.0432 45.6229 13.4351C45.0946 13.8271 44.4197 14.023 43.598 14.023ZM43.8621 22.9298H38.9321V17.1683H43.9502C44.9479 17.1683 45.75 17.4035 46.3565 17.8738C46.963 18.3245 47.2662 19.0888 47.2662 20.1667C47.2662 20.7154 47.1684 21.1661 46.9727 21.5188C46.7967 21.8716 46.5521 22.1557 46.2391 22.3713C45.9261 22.5673 45.5642 22.7142 45.1533 22.8122C44.7425 22.8906 44.3121 22.9298 43.8621 22.9298ZM54.6642 8.96705H58.8313V5.5278H54.6642V8.96705ZM58.8313 11.3187H54.6642V26.516H58.8313V11.3187ZM70.74 22.5771C70.29 22.8122 69.7716 22.9298 69.1847 22.9298C68.5391 22.9298 68.0011 22.7926 67.5707 22.5183C67.1403 22.2439 66.7881 21.8912 66.5142 21.46C66.2599 21.0289 66.0741 20.5488 65.9567 20.0197C65.8589 19.471 65.81 18.9223 65.81 18.3735C65.81 17.8052 65.8687 17.2663 65.986 16.7568C66.123 16.2277 66.3284 15.7672 66.6023 15.3752C66.8957 14.9637 67.2479 14.6403 67.6587 14.4052C68.0891 14.17 68.5978 14.0524 69.1847 14.0524C69.8694 14.0524 70.4368 14.1798 70.8867 14.4346C71.3367 14.6893 71.6986 15.0323 71.9725 15.4634C72.2464 15.8945 72.442 16.3943 72.5594 16.9626C72.6768 17.5113 72.7355 18.0992 72.7355 18.7263C72.7355 19.275 72.6572 19.8041 72.5007 20.3136C72.3638 20.8035 72.1486 21.2445 71.8551 21.6364C71.5617 22.0284 71.19 22.3419 70.74 22.5771ZM76.433 27.6331C76.6091 26.8492 76.6971 26.1535 76.6971 25.546V11.3187H72.7355V13.3469H72.6768C72.1681 12.4651 71.5323 11.838 70.7693 11.4656C70.0259 11.0933 69.1553 10.9071 68.1576 10.9071C67.1012 10.9071 66.1621 11.1129 65.3404 11.5244C64.5383 11.936 63.8634 12.4945 63.3156 13.2C62.7678 13.8859 62.3472 14.6893 62.0538 15.6104C61.7799 16.5118 61.6429 17.4525 61.6429 18.4323C61.6429 19.471 61.7603 20.4606 61.9951 21.4013C62.2494 22.3223 62.6407 23.1356 63.1689 23.8411C63.6971 24.527 64.372 25.0757 65.1937 25.4872C66.0154 25.8791 66.9936 26.0751 68.1282 26.0751C69.0477 26.0751 69.9183 25.8889 70.74 25.5166C71.5812 25.1247 72.2268 24.527 72.6768 23.7235H72.7355V25.7224C72.755 26.8002 72.4909 27.6918 71.9431 28.3973C71.4149 29.1028 70.5639 29.4556 69.3901 29.4556C68.6467 29.4556 67.9913 29.2988 67.424 28.9852C66.8566 28.6913 66.4751 28.1524 66.2795 27.3685H62.1418C62.2005 28.2308 62.4352 28.9656 62.8461 29.5731C63.2765 30.2002 63.8047 30.7098 64.4307 31.1017C65.0763 31.4936 65.7806 31.7778 66.5436 31.9542C67.3261 32.1501 68.0891 32.2481 68.8325 32.2481C70.5737 32.2481 71.9627 32.013 72.9996 31.5426C74.0365 31.0723 74.8288 30.4942 75.3766 29.8083C75.9243 29.142 76.2765 28.4169 76.433 27.6331ZM84.0137 21.3425C83.7594 20.8525 83.6322 20.2548 83.6322 19.5494H79.1717C79.1522 20.8427 79.3869 21.9598 79.876 22.9004C80.3651 23.8411 81.0205 24.6151 81.8422 25.2226C82.6834 25.8301 83.642 26.2711 84.718 26.5454C85.8136 26.8394 86.9385 26.9864 88.0928 26.9864C89.5209 26.9864 90.773 26.8198 91.849 26.4866C92.9445 26.1535 93.8542 25.693 94.5781 25.1051C95.3215 24.4976 95.8791 23.7823 96.2508 22.9592C96.6225 22.1361 96.8083 21.2445 96.8083 20.2842C96.8083 19.1084 96.554 18.1482 96.0454 17.4035C95.5563 16.6392 94.9694 16.0317 94.2846 15.581C93.5999 15.1303 92.9054 14.8069 92.2011 14.6109C91.5164 14.3954 90.9784 14.2484 90.5871 14.17C89.2764 13.8369 88.2101 13.5625 87.3885 13.3469C86.5864 13.1314 85.9505 12.9158 85.481 12.7002C85.031 12.4847 84.7278 12.2495 84.5713 11.9948C84.4148 11.74 84.3365 11.4069 84.3365 10.9953C84.3365 10.5446 84.4344 10.1723 84.63 9.8783C84.8256 9.58435 85.0702 9.33938 85.3636 9.14342C85.6766 8.94745 86.019 8.81027 86.3907 8.73188C86.7624 8.6535 87.1341 8.6143 87.5058 8.6143C88.0732 8.6143 88.5916 8.66329 89.0611 8.76128C89.5502 8.85926 89.9806 9.02583 90.3523 9.261C90.7241 9.49616 91.0175 9.81951 91.2327 10.231C91.4675 10.6426 91.6044 11.1619 91.6435 11.789H96.104C96.104 10.574 95.8693 9.54515 95.3998 8.70249C94.9498 7.84022 94.3335 7.13474 93.551 6.58603C92.7685 6.03731 91.8685 5.64538 90.8512 5.41021C89.8535 5.15546 88.8068 5.02808 87.7113 5.02808C86.7722 5.02808 85.8332 5.15546 84.8941 5.41021C83.9551 5.66497 83.1138 6.05691 82.3704 6.58603C81.627 7.11514 81.0205 7.78143 80.551 8.58491C80.101 9.36878 79.876 10.2996 79.876 11.3775C79.876 12.3377 80.0521 13.1608 80.4043 13.8467C80.776 14.513 81.2553 15.0715 81.8422 15.5222C82.4291 15.9729 83.0942 16.3453 83.8377 16.6392C84.5811 16.9136 85.3441 17.1487 86.1266 17.3447C86.8896 17.5603 87.6428 17.7562 88.3862 17.9326C89.1296 18.109 89.7948 18.3147 90.3817 18.5499C90.9686 18.7851 91.4381 19.079 91.7903 19.4318C92.162 19.7845 92.3478 20.245 92.3478 20.8133C92.3478 21.3425 92.2109 21.7834 91.937 22.1361C91.6631 22.4693 91.3207 22.7338 90.9099 22.9298C90.4991 23.1258 90.0589 23.263 89.5894 23.3413C89.1198 23.4001 88.6797 23.4295 88.2688 23.4295C87.6623 23.4295 87.0754 23.3609 86.5081 23.2238C85.9408 23.067 85.4419 22.8416 85.0115 22.5477C84.6006 22.2341 84.2681 21.8324 84.0137 21.3425ZM108.471 23.3707C108.021 23.6451 107.453 23.7823 106.769 23.7823C106.103 23.7823 105.536 23.6451 105.067 23.3707C104.597 23.0964 104.216 22.7436 103.922 22.3125C103.648 21.8618 103.443 21.3425 103.306 20.7546C103.188 20.1667 103.13 19.5689 103.13 18.9614C103.13 18.3343 103.188 17.7268 103.306 17.1389C103.423 16.551 103.619 16.0317 103.893 15.581C104.186 15.1303 104.558 14.7677 105.008 14.4934C105.477 14.1994 106.055 14.0524 106.739 14.0524C107.404 14.0524 107.962 14.1994 108.412 14.4934C108.881 14.7677 109.263 15.1401 109.556 15.6104C109.85 16.0611 110.055 16.5804 110.173 17.1683C110.31 17.7562 110.378 18.3539 110.378 18.9614C110.378 19.5689 110.319 20.1667 110.202 20.7546C110.085 21.3425 109.879 21.8618 109.586 22.3125C109.312 22.7436 108.94 23.0964 108.471 23.3707ZM103.071 11.3187H99.1094V31.8366H103.276V24.6347H103.335C103.844 25.3794 104.489 25.9477 105.272 26.3397C106.074 26.712 106.945 26.8982 107.884 26.8982C108.999 26.8982 109.967 26.6826 110.789 26.2515C111.63 25.8203 112.325 25.2422 112.872 24.5172C113.44 23.7921 113.86 22.9592 114.134 22.0186C114.408 21.0779 114.545 20.0981 114.545 19.079C114.545 18.0012 114.408 16.9724 114.134 15.9925C113.86 14.9931 113.44 14.121 112.872 13.3763C112.305 12.6317 111.591 12.034 110.73 11.5832C109.869 11.1325 108.842 10.9071 107.649 10.9071C106.71 10.9071 105.849 11.0933 105.067 11.4656C104.284 11.838 103.638 12.4357 103.13 13.2588H103.071V11.3187ZM121.011 11.3187H117.049V26.516H121.216V19.6669C121.216 18.981 121.285 18.3441 121.422 17.7562C121.558 17.1683 121.783 16.6588 122.097 16.2277C122.429 15.777 122.859 15.4242 123.388 15.1695C123.916 14.9147 124.562 14.7873 125.324 14.7873C125.579 14.7873 125.843 14.8069 126.117 14.8461C126.391 14.8657 126.625 14.8951 126.821 14.9343V11.0541C126.489 10.9561 126.185 10.9071 125.911 10.9071C125.383 10.9071 124.875 10.9855 124.385 11.1423C123.896 11.2991 123.437 11.5244 123.006 11.8184C122.576 12.0927 122.194 12.4357 121.862 12.8472C121.529 13.2392 121.265 13.6703 121.069 14.1406H121.011V11.3187ZM128.572 8.96705H132.739V5.5278H128.572V8.96705ZM132.739 11.3187H128.572V26.516H132.739V11.3187ZM139.982 11.3187H136.02V26.516H140.187V18.5499C140.187 17.0018 140.442 15.8945 140.95 15.2282C141.459 14.5424 142.281 14.1994 143.415 14.1994C144.413 14.1994 145.108 14.513 145.499 15.1401C145.89 15.7476 146.086 16.6784 146.086 17.9326V26.516H150.253V17.1683C150.253 16.2277 150.165 15.3752 149.989 14.6109C149.832 13.8271 149.549 13.1706 149.138 12.6415C148.727 12.0927 148.16 11.6714 147.436 11.3775C146.731 11.0639 145.822 10.9071 144.707 10.9071C143.826 10.9071 142.966 11.1129 142.124 11.5244C141.283 11.9164 140.598 12.5533 140.07 13.4351H139.982V11.3187ZM162.043 22.5771C161.593 22.8122 161.075 22.9298 160.488 22.9298C159.842 22.9298 159.304 22.7926 158.874 22.5183C158.443 22.2439 158.091 21.8912 157.817 21.46C157.563 21.0289 157.377 20.5488 157.26 20.0197C157.162 19.471 157.113 18.9223 157.113 18.3735C157.113 17.8052 157.172 17.2663 157.289 16.7568C157.426 16.2277 157.632 15.7672 157.905 15.3752C158.199 14.9637 158.551 14.6403 158.962 14.4052C159.392 14.17 159.901 14.0524 160.488 14.0524C161.173 14.0524 161.74 14.1798 162.19 14.4346C162.64 14.6893 163.002 15.0323 163.276 15.4634C163.55 15.8945 163.745 16.3943 163.863 16.9626C163.98 17.5113 164.039 18.0992 164.039 18.7263C164.039 19.275 163.96 19.8041 163.804 20.3136C163.667 20.8035 163.452 21.2445 163.158 21.6364C162.865 22.0284 162.493 22.3419 162.043 22.5771ZM167.736 27.6331C167.912 26.8492 168 26.1535 168 25.546V11.3187H164.039V13.3469H163.98C163.471 12.4651 162.835 11.838 162.073 11.4656C161.329 11.0933 160.459 10.9071 159.461 10.9071C158.404 10.9071 157.465 11.1129 156.644 11.5244C155.842 11.936 155.167 12.4945 154.619 13.2C154.071 13.8859 153.65 14.6893 153.357 15.6104C153.083 16.5118 152.946 17.4525 152.946 18.4323C152.946 19.471 153.063 20.4606 153.298 21.4013C153.553 22.3223 153.944 23.1356 154.472 23.8411C155 24.527 155.675 25.0757 156.497 25.4872C157.319 25.8791 158.297 26.0751 159.431 26.0751C160.351 26.0751 161.221 25.8889 162.043 25.5166C162.884 25.1247 163.53 24.527 163.98 23.7235H164.039V25.7224C164.058 26.8002 163.794 27.6918 163.246 28.3973C162.718 29.1028 161.867 29.4556 160.693 29.4556C159.95 29.4556 159.294 29.2988 158.727 28.9852C158.16 28.6913 157.778 28.1524 157.583 27.3685H153.445C153.504 28.2308 153.738 28.9656 154.149 29.5731C154.58 30.2002 155.108 30.7098 155.734 31.1017C156.379 31.4936 157.084 31.7778 157.847 31.9542C158.629 32.1501 159.392 32.2481 160.136 32.2481C161.877 32.2481 163.266 32.013 164.303 31.5426C165.34 31.0723 166.132 30.4942 166.68 29.8083C167.228 29.142 167.58 28.4169 167.736 27.6331Z" fill="#052555"/>
<path d="M6.31627 10.7708C2.78952 9.66889 0 9.74831 0 4.93354V0.505934H15.6313C17.0727 0.496685 18.5113 0.633056 19.9251 0.912956C21.1309 1.14178 22.2809 1.60019 23.3124 2.26308C24.2406 2.88534 24.9866 3.74172 25.4743 4.74492C26.0183 5.94425 26.2806 7.25139 26.2414 8.56695C26.3013 10.0227 25.9006 11.4605 25.0957 12.6769C24.3549 13.781 23.1306 14.8458 21.9177 15.3965" fill="#134EE7"/>
<path d="M22.1269 15.258C23.8106 16.1059 25.2945 17.3004 26.4805 18.7623C27.5056 20.2579 28.0384 22.0343 28.0048 23.8451C28.0396 25.3608 27.6974 26.8614 27.0085 28.2132C26.3793 29.4014 25.4741 30.4225 24.3684 31.1914C23.2168 31.9905 21.9314 32.5788 20.5727 32.9287C19.1426 33.3073 17.6689 33.4975 16.1892 33.4945H0V15.3969C0 11.972 2.58031 10.4333 6.39597 10.8403C11.8095 11.6276 17.0974 13.1125 22.1269 15.258Z" fill="#19C5F0"/>
</svg>
